<?xml version="1.0" encoding="UTF-8"?>
<svg viewBox="0 0 64 64" xmlns="http://www.w3.org/2000/svg">
 <defs>
  <filter id="b">
   <feGaussianBlur stdDeviation=".81407"/>
  </filter>
  <radialGradient id="a" cx="39.234" cy="40.567" r="24.528" gradientTransform="matrix(-.79644 -.27138 .41093 -1.206 46.676 88.174)" gradientUnits="userSpaceOnUse">
   <stop stop-color="#f60" offset="0"/>
   <stop stop-color="#dc0000" offset="1"/>
  </radialGradient>
 </defs>
 <path transform="matrix(1.1142 0 0 1.1142 -3.8328 -3.5671)" d="m34.53125,6.96875c-.71246.94226-1.40088,1.87229-2.09375,2.8125-.78349-.86455-1.57172-1.72911-2.375-2.59375l-.40625.0625c-.50562,1.06104-1.01302,2.13239-1.5,3.1875-.92681-.67814-1.86693-1.35687-2.8125-2.03125l-.375.125c-.28137,1.14-.54835,2.27598-.8125,3.40625-1.05417-.48248-2.11514-.96266-3.1875-1.4375l-.34375.21875c-.04624,1.17548-.09366,2.33747-.125,3.5-1.14496-.26374-2.30753-.5288-3.46875-.78125l-.21875.21875c.19358,1.17488.38801,2.34089.59375,3.5-1.18606-.0283-2.3937-.04885-3.59375-.0625-.06128.08507-.1273.16411-.1875.25 .43205,1.12752.87149,2.23449 1.3125,3.34375-1.19.21523-2.39299.45481-3.59375.6875-.02868.06424-.06561.12297-.09375.1875 .66331,1.03822 1.33137,2.07568 2,3.09375-1.13658.45606-2.29382.89934-3.4375,1.375-.01375.0627-.01799.12462-.03125.1875 .86377.88868 1.72878,1.7572 2.59375,2.625-1.0411.6884-2.08092,1.3842-3.125,2.09375-.0004.03134.00028.06238 0,.09375 1.04397.70967 2.08393,1.40506 3.125,2.09375-.89735.90005-1.79162,1.82821-2.6875,2.75 .00415.0215.02704.04102.03125.0625 1.17397.48855 2.36443.93792 3.53125,1.40625-.7018,1.06833-1.39783,2.16054-2.09375,3.25 1.26246.24505 2.52988.46103 3.78125.6875-.47759,1.20032-.9389,2.40469-1.40625,3.625 1.29372-.01418 2.59614-.03212 3.875-.0625-.22256,1.25305-.44729,2.5113-.65625,3.78125 1.25521-.27233 2.51224-.55877 3.75-.84375 .03456,1.28695.07341,2.57403.125,3.875 1.17946-.52151 2.3402-1.0633 3.5-1.59375 .29101,1.24581.62705,2.49383.9375,3.75 1.04281-.74292 2.07172-1.50236 3.09375-2.25 .53515,1.15979 1.10027,2.33416 1.65625,3.5 .88425-.95085 1.76271-1.89245 2.625-2.84375 .76316,1.03582 1.52753,2.05622 2.3125,3.09375 .66998-1.1016 1.32016-2.21488 1.96875-3.3125 .94854.85436 1.90477,1.71075 2.875,2.5625 .43938-1.22742.86243-2.43718 1.28125-3.65625 1.10727.64959 2.21558,1.29491 3.34375,1.9375 .18123-1.27632.36813-2.54829.53125-3.8125 1.21193.41206 2.42556.81764 3.65625,1.21875-.07953-1.28936-.18652-2.56965-.28125-3.84375 1.27412.16026 2.5533.29186 3.84375.4375-.3376-1.24736-.71297-2.4898-1.0625-3.71875 1.29145-.10012 2.57013-.22559 3.875-.34375-.57904-1.14842-1.1943-2.27807-1.78125-3.40625 1.23389-.35513 2.47562-.71874 3.71875-1.09375-.7967-1.00627-1.60587-2.01488-2.40625-3 1.13363-.5944 2.26757-1.19684 3.40625-1.8125-.99477-.83525-2.0059-1.65546-3-2.46875 .99419-.81318 2.00515-1.6336 3-2.46875-1.13861-.61578-2.27269-1.21798-3.40625-1.8125 .80049-.98504 1.60944-1.99381 2.40625-3-1.24309-.37514-2.4849-.73849-3.71875-1.09375 .58707-1.12812 1.20209-2.25789 1.78125-3.40625-1.30486-.11829-2.58356-.24349-3.875-.34375 .34345-1.20709.69942-2.43103 1.03125-3.65625l-.0625-.0625c-1.25949.14212-2.50654.28123-3.75.4375 .09103-1.22257.2046-2.45013.28125-3.6875-.04851-.03688-.10745-.05723-.15625-.09375-1.17718.38375-2.34085.76227-3.5,1.15625-.15363-1.19166-.32956-2.39045-.5-3.59375l-.21875-.09375c-1.05929.60355-2.11647,1.20275-3.15625,1.8125-.38666-1.12584-.78214-2.2411-1.1875-3.375-.10398-.02653-.20799-.06855-.3125-.09375-.89766.78837-1.77857,1.58464-2.65625,2.375-.59435-1.00608-1.19879-2.02111-1.8125-3.03125-.12447-.00645-.25005.00458-.375,0zm22.1875,16.75 .09375.03125-.03125-.09375-.0625.0625zm1,4.8125 .125.0625c-.0069-.06327.0074-.12438 0-.1875-.04516.03792-.07983.08708-.125.125zm0,4.9375c.05653.04747.09974.10879.15625.15625 .0079-.08212.02412-.16765.03125-.25l-.1875.09375zm-1,4.8125c.05998.07576.12756.143.1875.21875 .02861-.0913.03495-.18948.0625-.28125l-.25.0625zm-1.9375,4.5c.0507.10055.07435.21198.125.3125 .06437-.11476.12495-.22786.1875-.34375l-.3125.03125zm-2.8125,4.0625c.02794.10322.0346.20931.0625.3125 .07689-.08842.17438-.16047.25-.25-.10597-.01194-.20649-.05054-.3125-.0625zm-3.5625,3.40625c.0065.10474-.0064.2078 0,.3125 .0956-.07279.18677-.14459.28125-.21875l-.28125-.09375zm-4.1875,2.59375c-.01503.10582-.04746.20673-.0625.3125 .1131-.05417.23163-.1004.34375-.15625l-.28125-.15625zm-4.625,1.71875c-.0337.09414-.06004.18715-.09375.28125 .10497-.02589.20807-.06651.3125-.09375-.07286-.06393-.14588-.12353-.21875-.1875zm-4.84375.75c-.0468.07696-.10944.14183-.15625.21875 .10405-.0041.20879.0054.3125,0-.05461-.07216-.10163-.14656-.15625-.21875zm-4.9375-.25c-.05054.05435-.10571.10192-.15625.15625 .08563.01398.16407.04941.25.0625-.03431-.07191-.05945-.14681-.09375-.21875zm-4.75-1.25c-.05456.03887-.1017.08615-.15625.125l.1875.0625c-.01525-.06167-.016-.12581-.03125-.1875zm-4.4375-2.15625-.125.0625 .125.0625c-.0017-.04192.0017-.08308 0-.125zm-3.875-3.03125-.15625.03125c.03632.03532.08846.05865.125.09375 .007-.04257.02425-.08243.03125-.125zm-3.21875-3.71875h-.09375c.01653.02424.04589.03833.0625.0625 .0084-.02184.02289-.04066.03125-.0625zm-2.375-4.3125h-.0625c.0051.01221.02613.01905.03125.03125l.03125-.03125z" fill="#0e232e" filter="url(#b)"/>
 <path d="m33.52591,3.77934c-.79379,1.04982-1.56078,2.08601-2.33274,3.13354-.87292-.96323-1.75113-1.92648-2.6461-2.88982-.1521.02216-.30135.04497-.45262.06963-.56334,1.18215-1.12865,2.3758-1.67122,3.55134-1.0326-.75555-2.08003-1.51176-3.13354-2.26311l-.4178.13927c-.31349,1.27013-.61094,2.53577-.90524,3.79506-1.1745-.53755-2.35658-1.07255-3.55134-1.60159l-.38299.24372c-.05152,1.30966-.10435,2.60428-.13927,3.89951-1.27565-.29385-2.57092-.58916-3.8647-.87043-.08235.07638-.16232.16635-.24372.24372 .21568,1.30899.4323,2.6081.66153,3.89952-1.32144-.03154-2.66693-.05443-4.00396-.06964-.06827.09479-.14183.18285-.20891.27854 .48137,1.25622.97097,2.48955 1.46232,3.72543-1.32583.2398-2.66614.50672-4.00397.76597-.03195.07156-.0731.13701-.10445.2089 .73903,1.15673 1.48334,2.31261 2.22829,3.44689-1.26632.50811-2.55566,1.00199-3.82988,1.53195-.01532.06987-.02004.13884-.03482.2089 .96236.99012 1.92611,1.95778 2.88982,2.92463-1.15993.76698-2.31845,1.5422-3.48171,2.33275-.00044.03491.00031.06949 0,.10446 1.16314.79067 2.3218,1.56544 3.48171,2.33274-.99978,1.00278-1.99612,2.0369-2.99427,3.0639 .00463.02396.03013.0457.03482.06964 1.30797.54432 2.63432,1.04498 3.93433,1.56677-.78191,1.19027-1.55739,2.40716-2.33274,3.62098 1.40656.27302 2.81866.51365 4.21287.76597-.53211,1.33733-1.04607,2.67918-1.56677,4.03878 1.44139-.0158 2.89248-.03578 4.31732-.06964-.24796,1.39609-.49834,2.79796-.73116,4.21287 1.39849-.30341 2.799-.62255 4.17805-.94006 .0385,1.43385.08178,2.86785.13927,4.31732 1.31409-.58104 2.60732-1.18468 3.89951-1.77567 .32422,1.38802.69863,2.77849 1.04451,4.17805 1.16185-.82772 2.30821-1.67385 3.44689-2.50683 .59623,1.29217 1.22587,2.60059 1.84531,3.89951 .98519-1.05939 1.96391-2.10847 2.92463-3.16836 .85027,1.15405 1.7019,2.29093 2.57646,3.44689 .74646-1.22734 1.47085-2.4677 2.19348-3.69061 1.05681.95188 2.12219,1.90603 3.20317,2.855 .48954-1.36752.96087-2.71538 1.4275-4.0736 1.23366.72374 2.46849,1.44272 3.72543,2.15866 .20192-1.42201.41015-2.83917.59189-4.24769 1.35027.4591 2.70243.91097 4.0736,1.35787-.08862-1.43654-.20781-2.86297-.31335-4.2825 1.41956.17856 2.84475.32518 4.2825.48744-.37613-1.38974-.79435-2.774-1.18378-4.14323 1.43886-.11155 2.8635-.25135 4.31732-.38299-.64514-1.27951-1.33062-2.5381-1.98458-3.79506 1.37474-.39567 2.7582-.80078 4.14323-1.2186-.88764-1.12113-1.78918-2.24487-2.68092-3.34244 1.26303-.66225 2.52641-1.33346 3.79507-2.01939-1.10832-.9306-2.23487-1.84443-3.34244-2.75055 1.10767-.906 2.23402-1.82007 3.34244-2.75055-1.26858-.68606-2.53211-1.35701-3.79507-2.01939 .89186-1.09748 1.79316-2.2214 2.68092-3.34244-1.38499-.41796-2.76854-.82278-4.14323-1.2186 .65409-1.25689 1.3393-2.51563 1.98458-3.79506-1.45381-.1318-2.87847-.27128-4.31732-.38299 .38266-1.34488.77925-2.70852 1.14896-4.0736l-.06964-.06964c-1.40325.15834-2.79265.31333-4.17805.48744 .10141-1.36212.22796-2.72981.31335-4.10842-.05405-.04108-.11972-.06376-.17408-.10445-1.31155.42755-2.60805.84928-3.89952,1.28823-.17116-1.32768-.36718-2.66331-.55707-4.00396-.07977-.0386-.16352-.06661-.24372-.10445-1.18021.67244-2.35806,1.34004-3.51653,2.01939-.43079-1.25435-.87142-2.49691-1.32305-3.76024-.11585-.02956-.23173-.07638-.34817-.10445-1.00012.87836-1.98159,1.76552-2.95945,2.6461-.6622-1.12092-1.33563-2.25182-2.01939-3.37726-.13867-.0072-.27859.00509-.4178,0zm24.72013,18.66196 .10445.03482c-.01144-.03514-.02322-.06938-.03482-.10445-.02019.02549-.04945.04415-.06964.06964zm1.11415,5.36183c.04594.02485.09335.04479.13927.06964-.0078-.0705.0083-.13857 0-.2089-.05032.04224-.08895.09701-.13927.13927zm0,5.5011c.06298.0529.11113.1212.17408.17408 .0088-.0915.02688-.18679.03482-.27854-.06908.03737-.13981.06709-.2089.10445zm-1.11415,5.36183c.06682.0844.14211.15932.2089.24372 .03188-.10171.03894-.21111.06964-.31335-.09224.02784-.18626.04181-.27854.06964zm-2.15866,5.01366c.05649.11203.08284.23618.13927.34817 .07172-.12786.13921-.25387.2089-.38299l-.34817.03482zm-3.13354,4.52622c.03112.115.03856.23321.06964.34817 .08568-.09853.19428-.17879.27854-.27854-.11807-.01329-.23006-.0563-.34817-.06964zm-3.96915,3.79506c.0071.1167-.007.23152 0,.34817l.31335-.24372c-.10581-.03447-.20751-.06996-.31335-.10446zm-4.66549,2.88982c-.01674.11789-.05289.23033-.06964.34817 .12601-.06035.25807-.11186.38299-.17408-.10494-.05974-.20838-.1143-.31335-.17408zm-5.15293,1.91494c-.03754.10488-.06691.20851-.10446.31335 .11695-.02884.23182-.0741.34817-.10445l-.24372-.20891zm-5.39665.83561c-.05214.08575-.12194.15802-.17408.24372 .11593-.0047.23262.006.34817,0-.06085-.0804-.11323-.16329-.17408-.24372zm-5.5011-.27854c-.0563.06056-.11778.11356-.17409.17408 .09541.01557.1828.05505.27854.06964-.03824-.08013-.06623-.16357-.10446-.24372zm-5.2922-1.39268c-.0608.04331-.1133.09599-.17408.13927 .06822.02607.14042.04411.2089.06964-.01699-.06872-.01783-.14017-.03482-.2089zm-4.94403-2.40238-.13927.06964c.04334.02771.09576.04218.13927.06964-.002-.04671.002-.09256 0-.13927zm-4.31732-3.37726-.17408.03482c.04046.03934.09857.06534.13927.10445 .0079-.04743.02701-.09185.03482-.13927zm-3.58616-4.14323h-.10445c.01842.027.05114.04271.06964.06964l.03482-.06964zm-2.6461-4.80476h-.06963c.00567.01359.02911.02121.03482.03482 .0088-.01371.02606-.02111.03482-.03482z" fill="url(#a)" stroke="#f5f2f2" stroke-linecap="square" stroke-linejoin="bevel" stroke-opacity=".92308" stroke-width=".44566"/>
</svg>
